Coordinates
version=1
nRows=32
nColumns=12
inDegrees=yes

Units are S.I. units (second, meters, Newtons, ...)
Angles are in degrees

endheader
time	SC_y	SC_z	SC_x	AC_y	AC_z	AC_x	GH_y	GH_z	GH_yy	EL_x	PS_y
       0.0              -56.66          20.76          43.24           46.8          -9.11          5.239          45.31          56.38          -47.8          137.7          147.1
   0.04907              -56.65          20.75          43.24           46.8          -9.11          5.238          45.28          56.37         -47.77          137.6          147.1
   0.09813              -56.64          20.75          43.24           46.8         -9.111          5.236          45.25          56.36         -47.75          137.6          147.0
    0.1472              -56.64          20.75          43.24          46.81         -9.111          5.235          45.22          56.35         -47.72          137.6          147.0
    0.1963              -56.63          20.74          43.23          46.81         -9.112          5.233          45.19          56.34         -47.69          137.6          147.0
    0.2453              -56.63          20.74          43.23          46.81         -9.113          5.231          45.15          56.33         -47.66          137.6          147.0
    0.2944              -56.62          20.74          43.23          46.82         -9.114          5.229          45.11          56.31         -47.63          137.6          147.0
    0.3435              -56.61          20.73          43.23          46.82         -9.114          5.227          45.07           56.3          -47.6          137.5          146.9
    0.3925               -56.6          20.73          43.22          46.82         -9.115          5.225          45.03          56.29         -47.56          137.5          146.9
    0.4416              -56.59          20.73          43.22          46.83         -9.116          5.222          44.98          56.27         -47.52          137.5          146.9
    0.4907              -56.58          20.72          43.22          46.83         -9.117           5.22          44.93          56.26         -47.48          137.5          146.9
    0.5397              -56.57          20.72          43.21          46.84         -9.118          5.217          44.88          56.24         -47.44          137.4          146.8
    0.5888              -56.56          20.71          43.21          46.84         -9.119          5.214          44.82          56.22         -47.39          137.4          146.8
    0.6379              -56.55           20.7           43.2          46.85         -9.121           5.21          44.76           56.2         -47.34          137.4          146.7
    0.6869              -56.54           20.7           43.2          46.85         -9.122          5.207          44.69          56.18         -47.28          137.4          146.7
     0.736              -56.53          20.69           43.2          46.86         -9.124          5.203          44.61          56.16         -47.22          137.3          146.7
    0.7851              -56.51          20.68          43.19          46.87         -9.125          5.199          44.53          56.13         -47.15          137.3          146.6
    0.8341              -56.49          20.67          43.18          46.88         -9.127          5.194          44.45           56.1         -47.08          137.2          146.6
    0.8832              -56.48          20.66          43.18          46.88         -9.129          5.189          44.35          56.07          -47.0          137.2          146.5
    0.9323              -56.46          20.65          43.17          46.89         -9.131          5.183          44.25          56.04         -46.91          137.1          146.4
    0.9813              -56.43          20.64          43.16           46.9         -9.133          5.177          44.13          56.01         -46.82          137.1          146.4
      1.03              -56.41          20.63          43.16          46.91         -9.136          5.171           44.0          55.97         -46.71          137.0          146.3
     1.079              -56.38          20.62          43.15          46.93         -9.139          5.163          43.87          55.92         -46.59          136.9          146.2
     1.129              -56.36           20.6          43.14          46.94         -9.142          5.155          43.71          55.87         -46.47          136.9          146.1
     1.178              -56.32          20.59          43.12          46.96         -9.145          5.146          43.54          55.82         -46.32          136.8          146.0
     1.227              -56.29          20.57          43.11          46.97         -9.149          5.136          43.35          55.76         -46.16          136.7          145.9
     1.276              -56.25          20.55           43.1          46.99         -9.154          5.125          43.13          55.69         -45.98          136.6          145.8
     1.325               -56.2          20.52          43.08          47.01         -9.159          5.112          42.89          55.62         -45.78          136.5          145.7
     1.374              -56.15           20.5          43.06          47.04         -9.164          5.098          42.62          55.53         -45.56          136.3          145.5
     1.423              -56.09          20.47          43.04          47.07          -9.17          5.082           42.3          55.43          -45.3          136.2          145.3
     1.472              -56.03          20.44          43.02           47.1         -9.178          5.063          41.95          55.32          -45.0          136.0          145.1
     1.521              -55.95           20.4          42.99          47.13         -9.186          5.042          41.54          55.19         -44.67          135.8          144.9
